<svg viewBox="0 0 40 40" fill="none" xmlns="http://www.w3.org/2000/svg">
    <path d="M20 5L6.66666 12.5V27.5L20 35L33.3333 27.5V12.5L20 5ZM20 25.5235C18.8994 25.5235 17.8236 25.1996 16.9086 24.5926C15.9935 23.9857 15.2803 23.1231 14.8591 22.1138C14.438 21.1045 14.3278 19.9939 14.5425 18.9224C14.7572 17.851 15.2871 16.8668 16.0653 16.0943C16.8435 15.3218 17.835 14.7957 18.9144 14.5826C19.9938 14.3695 21.1126 14.4789 22.1294 14.8969C23.1462 15.315 24.0152 16.023 24.6267 16.9313C25.2381 17.8396 25.5644 18.9075 25.5644 20C25.5644 21.4649 24.9782 22.8699 23.9346 23.9057C22.8911 24.9416 21.4758 25.5235 20 25.5235Z" fill="currentcolor" />
    </svg>
